<svg width="63" height="57" viewBox="0 0 63 57" fill="none" xmlns="http://www.w3.org/2000/svg">
<g opacity="0.6">
<path d="M56.5368 23.209C57.0356 22.6042 57.5344 22.0349 57.962 21.4302C58.6746 20.4696 59.6366 20.1494 60.7768 20.3984C61.8457 20.6475 62.4871 21.4302 62.7009 22.533C62.8434 23.3157 62.594 23.9916 62.1308 24.5964C60.1711 27.0868 58.2114 29.5415 56.2517 32.0318C55.2184 33.3126 53.6151 33.5972 52.2967 32.5655C49.6957 30.5732 47.0947 28.5098 44.5293 26.4464C43.4604 25.5926 43.2822 23.8849 44.1373 22.8888C45.0281 21.7859 46.5602 21.5725 47.736 22.4619C48.5199 23.0667 49.2681 23.6714 50.1945 24.2051C49.8739 23.1022 49.5888 21.9994 49.1969 20.8965C47.7004 16.8053 45.1706 13.4611 41.6788 10.8285C38.7928 8.65833 35.5504 7.23529 31.9517 6.73722C24.9325 5.74109 18.7327 7.59105 13.4951 12.3938C9.86073 15.6668 7.61601 19.7581 6.76087 24.5253C5.65633 30.9645 7.08155 36.8702 11.1434 42.0643C14.2433 46.0132 18.2695 48.717 23.1509 49.8199C31.7379 51.7766 39.0422 49.4285 45.0281 43.0248C45.6694 42.3133 46.2039 41.5306 46.8096 40.7836C47.6291 39.7163 48.7693 39.2538 50.0876 39.5028C51.2991 39.7518 52.1186 40.4989 52.4749 41.673C52.7956 42.7047 52.5462 43.6652 51.9404 44.5546C48.7693 49.2151 44.5649 52.5948 39.3628 54.765C35.3722 56.437 31.1678 57.113 26.8565 56.8639C20.6568 56.5082 15.1697 54.3736 10.3952 50.4247C5.1575 46.12 1.7726 40.6412 0.561156 33.9885C-1.256 24.1695 1.34503 15.5601 8.29299 8.4093C12.4974 4.06902 17.6282 1.43638 23.6141 0.440254C30.4552 -0.733757 36.9043 0.440254 42.8903 3.96229C49.2325 7.69778 53.5082 13.1409 55.7173 20.185C56.0379 21.11 56.2517 22.1417 56.5368 23.209Z" fill="#C77059"/>
<path d="M32.8067 22.3899C32.8067 25.3069 32.771 28.224 32.8067 31.1411C32.8423 32.7064 31.8803 34.3428 29.7068 34.2361C29.0298 34.2005 28.3172 34.2361 27.6403 34.2005C25.93 34.1294 24.8611 32.991 24.8254 31.2834C24.8254 28.2596 24.8254 25.2358 24.8254 22.2476C24.8254 19.3305 24.8254 16.4134 24.8254 13.4963C24.8254 11.8243 26.1081 10.4725 27.7115 10.5792C28.3529 10.6148 29.0298 10.6504 29.6712 10.5792C31.7734 10.4013 32.8423 12.0733 32.8067 13.7097C32.771 16.5913 32.8067 19.4728 32.8067 22.3899Z" fill="#C77059"/>
<path d="M28.817 45.4788C26.7861 45.5144 24.8264 43.9136 24.7908 41.459C24.7551 39.289 26.6436 37.4392 28.7814 37.4392C31.2399 37.4392 32.8789 39.3958 32.8433 41.5302C32.8077 43.7002 30.9905 45.4788 28.817 45.4788Z" fill="#C77059"/>
</g>
</svg>
