<svg width="523" height="120" fill="none" xmlns="http://www.w3.org/2000/svg"><path fill="#DC8A74" d="M382 46h141v36H382zM157 46h141v36H157zM0 46h79v36H0z"/><path d="M414.758 112.614c-1.115 1.1-2.479 1.65-4.092 1.65-1.613 0-2.985-.55-4.114-1.65-1.115-1.115-1.672-2.486-1.672-4.114 0-1.628.557-2.992 1.672-4.092 1.129-1.115 2.501-1.672 4.114-1.672s2.977.557 4.092 1.672c1.129 1.1 1.694 2.464 1.694 4.092 0 1.628-.565 2.999-1.694 4.114zm-7.172-1.012c.836.836 1.863 1.254 3.08 1.254s2.244-.418 3.08-1.254c.836-.851 1.254-1.885 1.254-3.102 0-1.217-.418-2.244-1.254-3.08-.836-.851-1.863-1.276-3.08-1.276s-2.244.425-3.08 1.276c-.836.836-1.254 1.863-1.254 3.08s.418 2.251 1.254 3.102zm16.422 2.662c-1.658 0-3.036-.55-4.136-1.65-1.1-1.115-1.65-2.486-1.65-4.114 0-1.628.55-2.992 1.65-4.092 1.1-1.115 2.478-1.672 4.136-1.672 1.085 0 2.06.264 2.926.792.865.513 1.496 1.21 1.892 2.09l-1.188.682c-.294-.66-.77-1.181-1.43-1.562-.646-.396-1.379-.594-2.2-.594-1.218 0-2.244.425-3.08 1.276-.836.836-1.254 1.863-1.254 3.08s.418 2.251 1.254 3.102c.836.836 1.862 1.254 3.08 1.254.821 0 1.554-.191 2.2-.572a4.257 4.257 0 001.518-1.584l1.21.704a5.084 5.084 0 01-2.002 2.09c-.88.513-1.856.77-2.926.77zM438.726 103v1.408h-3.894V114h-1.452v-9.592h-3.894V103h9.24zm10.799 0h1.452v11h-1.452v-2.156c-1.012 1.613-2.493 2.42-4.444 2.42-1.569 0-2.911-.557-4.026-1.672-1.1-1.115-1.65-2.479-1.65-4.092 0-1.613.55-2.977 1.65-4.092 1.115-1.115 2.457-1.672 4.026-1.672 1.951 0 3.432.807 4.444 2.42V103zm-7.414 8.602c.836.836 1.863 1.254 3.08 1.254 1.218 0 2.244-.418 3.08-1.254.836-.851 1.254-1.885 1.254-3.102 0-1.217-.418-2.244-1.254-3.08-.836-.851-1.862-1.276-3.08-1.276-1.217 0-2.244.425-3.08 1.276-.836.836-1.254 1.863-1.254 3.08s.418 2.251 1.254 3.102zM463.072 103v11h-1.452v-9.592h-4.972v4.906c0 1.833-.352 3.095-1.056 3.784-.69.689-1.643.99-2.86.902v-1.364c.836.088 1.452-.11 1.848-.594.41-.484.616-1.393.616-2.728V103h7.876zm12.293 9.614c-1.114 1.1-2.478 1.65-4.092 1.65-1.613 0-2.984-.55-4.114-1.65-1.114-1.115-1.672-2.486-1.672-4.114 0-1.628.558-2.992 1.672-4.092 1.13-1.115 2.501-1.672 4.114-1.672 1.614 0 2.978.557 4.092 1.672 1.13 1.1 1.694 2.464 1.694 4.092 0 1.628-.564 2.999-1.694 4.114zm-7.172-1.012c.836.836 1.863 1.254 3.08 1.254 1.218 0 2.244-.418 3.08-1.254.836-.851 1.254-1.885 1.254-3.102 0-1.217-.418-2.244-1.254-3.08-.836-.851-1.862-1.276-3.08-1.276-1.217 0-2.244.425-3.08 1.276-.836.836-1.254 1.863-1.254 3.08s.418 2.251 1.254 3.102zm16.422 2.662c-1.657 0-3.036-.55-4.136-1.65-1.1-1.115-1.65-2.486-1.65-4.114 0-1.628.55-2.992 1.65-4.092 1.1-1.115 2.479-1.672 4.136-1.672 1.086 0 2.061.264 2.926.792.866.513 1.496 1.21 1.892 2.09l-1.188.682c-.293-.66-.77-1.181-1.43-1.562-.645-.396-1.378-.594-2.2-.594-1.217 0-2.244.425-3.08 1.276-.836.836-1.254 1.863-1.254 3.08s.418 2.251 1.254 3.102c.836.836 1.863 1.254 3.08 1.254.822 0 1.555-.191 2.2-.572a4.242 4.242 0 001.518-1.584l1.21.704a5.077 5.077 0 01-2.002 2.09c-.88.513-1.855.77-2.926.77zm11.479-7.084c1.027 0 1.892.323 2.596.968.719.631 1.078 1.445 1.078 2.442 0 .997-.359 1.819-1.078 2.464-.704.631-1.569.946-2.596.946h-4.466v-11h1.452v4.18h3.014zm0 5.412c.616 0 1.137-.183 1.562-.55.44-.367.66-.851.66-1.452s-.22-1.085-.66-1.452c-.425-.367-.946-.55-1.562-.55h-3.014v4.004h3.014zM29.78 112.592h1.54v4.356h-1.452V114h-8.976v2.948H19.44v-4.356h1.342c.748-.983 1.122-2.369 1.122-4.158V103h7.876v9.592zm-7.238 0h5.786v-8.184h-4.972v4.026c0 1.687-.271 3.073-.814 4.158zM41.305 103h1.452v11h-1.452v-4.796h-6.336V114h-1.452v-11h1.452v4.796h6.336V103zm12.442 0v11h-1.452v-4.224h-1.892L47.015 114h-1.848l3.476-4.268c-.88-.132-1.606-.499-2.178-1.1-.572-.601-.858-1.342-.858-2.222 0-.997.352-1.811 1.056-2.442.719-.645 1.591-.968 2.618-.968h4.466zm-4.466 5.412h3.014v-4.004h-3.014c-.616 0-1.144.183-1.584.55-.425.367-.638.851-.638 1.452s.213 1.085.638 1.452c.44.367.968.55 1.584.55zM43.97 40.88c3.127 1.073 5.647 2.823 7.56 5.25 1.913 2.38 2.87 5.203 2.87 8.47 0 5.133-1.727 9.147-5.18 12.04-3.453 2.893-7.677 4.34-12.67 4.34-3.873 0-7.35-.887-10.43-2.66-3.033-1.773-5.273-4.387-6.72-7.84l9.66-5.6c1.213 3.453 3.71 5.18 7.49 5.18 2.193 0 3.85-.513 4.97-1.54 1.12-1.027 1.68-2.333 1.68-3.92 0-1.587-.56-2.893-1.68-3.92-1.12-1.027-2.777-1.54-4.97-1.54h-2.31l-4.27-6.37 8.89-11.27H20.94V21h31.5v9.1l-8.47 10.78zM424.51 21h9.8v49h-11.2V32.83l-8.68 2.38-2.73-9.59L424.51 21zM452.7 21h32.2v9.38L468.94 70h-11.9l15.4-38.22H452.7V21zM148.536 108.346c1.203.44 1.804 1.298 1.804 2.574 0 .895-.301 1.635-.902 2.222-.587.572-1.437.858-2.552.858h-5.346v-11h4.906c1.071 0 1.899.279 2.486.836.587.543.88 1.247.88 2.112 0 1.1-.425 1.899-1.276 2.398zm-2.09-3.938h-3.454v3.344h3.454c1.276 0 1.914-.572 1.914-1.716 0-.513-.169-.909-.506-1.188-.323-.293-.792-.44-1.408-.44zm.44 8.184c.645 0 1.137-.154 1.474-.462.352-.308.528-.741.528-1.298 0-.513-.176-.917-.528-1.21-.337-.308-.829-.462-1.474-.462h-3.894v3.432h3.894zm10.78 1.672c-1.657 0-3.036-.55-4.136-1.65-1.1-1.115-1.65-2.486-1.65-4.114 0-1.628.55-2.992 1.65-4.092 1.1-1.115 2.479-1.672 4.136-1.672 1.085 0 2.061.264 2.926.792.865.513 1.496 1.21 1.892 2.09l-1.188.682c-.293-.66-.77-1.181-1.43-1.562-.645-.396-1.379-.594-2.2-.594-1.217 0-2.244.425-3.08 1.276-.836.836-1.254 1.863-1.254 3.08s.418 2.251 1.254 3.102c.836.836 1.863 1.254 3.08 1.254.821 0 1.555-.191 2.2-.572a4.257 4.257 0 001.518-1.584l1.21.704a5.084 5.084 0 01-2.002 2.09c-.88.513-1.855.77-2.926.77zm11.987-11.528c1.628 0 2.941.579 3.938 1.738 1.012 1.144 1.518 2.501 1.518 4.07 0 .161-.014.389-.044.682h-9.658c.147 1.115.616 2.002 1.408 2.662.807.645 1.797.968 2.97.968.836 0 1.555-.169 2.156-.506.616-.352 1.078-.807 1.386-1.364l1.276.748a5.23 5.23 0 01-1.98 1.848c-.836.455-1.789.682-2.86.682-1.73 0-3.138-.543-4.224-1.628-1.085-1.085-1.628-2.464-1.628-4.136 0-1.643.536-3.014 1.606-4.114 1.071-1.1 2.45-1.65 4.136-1.65zm0 1.408c-1.144 0-2.104.345-2.882 1.034-.762.675-1.217 1.555-1.364 2.64h8.206c-.146-1.159-.594-2.061-1.342-2.706a3.884 3.884 0 00-2.618-.968zM184.459 103v1.408h-5.588V114h-1.452v-11h7.04zm10.557 9.614c-1.115 1.1-2.479 1.65-4.092 1.65-1.614 0-2.985-.55-4.114-1.65-1.115-1.115-1.672-2.486-1.672-4.114 0-1.628.557-2.992 1.672-4.092 1.129-1.115 2.5-1.672 4.114-1.672 1.613 0 2.977.557 4.092 1.672 1.129 1.1 1.694 2.464 1.694 4.092 0 1.628-.565 2.999-1.694 4.114zm-7.172-1.012c.836.836 1.862 1.254 3.08 1.254 1.217 0 2.244-.418 3.08-1.254.836-.851 1.254-1.885 1.254-3.102 0-1.217-.418-2.244-1.254-3.08-.836-.851-1.863-1.276-3.08-1.276-1.218 0-2.244.425-3.08 1.276-.836.836-1.254 1.863-1.254 3.08s.418 2.251 1.254 3.102zM212.56 103h1.54l-4.708 12.012c-.426 1.085-1.034 1.936-1.826 2.552-.778.631-1.65.909-2.618.836v-1.364c1.32.147 2.324-.616 3.014-2.288l.286-.682L203.32 103h1.54l4.136 9.218L212.56 103zm10.422 0h1.452v11h-1.452v-4.18c-.85.44-1.899.66-3.146.66-1.437 0-2.537-.33-3.3-.99-.748-.675-1.122-1.665-1.122-2.97V103h1.452v3.52c0 .924.242 1.591.726 2.002.484.396 1.218.594 2.2.594a7.947 7.947 0 003.19-.638V103zm13.998 0h1.452v11h-1.452v-2.156c-1.012 1.613-2.493 2.42-4.444 2.42-1.569 0-2.911-.557-4.026-1.672-1.1-1.115-1.65-2.479-1.65-4.092 0-1.613.55-2.977 1.65-4.092 1.115-1.115 2.457-1.672 4.026-1.672 1.951 0 3.432.807 4.444 2.42V103zm-7.414 8.602c.836.836 1.863 1.254 3.08 1.254 1.218 0 2.244-.418 3.08-1.254.836-.851 1.254-1.885 1.254-3.102 0-1.217-.418-2.244-1.254-3.08-.836-.851-1.862-1.276-3.08-1.276-1.217 0-2.244.425-3.08 1.276-.836.836-1.254 1.863-1.254 3.08s.418 2.251 1.254 3.102zm17.067 2.662c-1.658 0-3.036-.55-4.136-1.65-1.1-1.115-1.65-2.486-1.65-4.114 0-1.628.55-2.992 1.65-4.092 1.1-1.115 2.478-1.672 4.136-1.672 1.085 0 2.06.264 2.926.792.865.513 1.496 1.21 1.892 2.09l-1.188.682c-.294-.66-.77-1.181-1.43-1.562-.646-.396-1.379-.594-2.2-.594-1.218 0-2.244.425-3.08 1.276-.836.836-1.254 1.863-1.254 3.08s.418 2.251 1.254 3.102c.836.836 1.862 1.254 3.08 1.254.821 0 1.554-.191 2.2-.572a4.257 4.257 0 001.518-1.584l1.21.704a5.084 5.084 0 01-2.002 2.09c-.88.513-1.856.77-2.926.77zM261.351 103v1.408h-3.894V114h-1.452v-9.592h-3.894V103h9.24zm9.557 0h1.452v11h-1.452v-4.796h-6.336V114h-1.452v-11h1.452v4.796h6.336V103zm12.531 0h1.232v11h-1.452v-8.47l-6.556 8.47h-1.232v-11h1.452v8.47l6.556-8.47zm13.19 11h-1.936l-5.5-5.302V114h-1.452v-11h1.452v4.862l5.236-4.862h1.98l-5.676 5.28 5.896 5.72zm10.106-1.386c-1.115 1.1-2.479 1.65-4.092 1.65-1.614 0-2.985-.55-4.114-1.65-1.115-1.115-1.672-2.486-1.672-4.114 0-1.628.557-2.992 1.672-4.092 1.129-1.115 2.5-1.672 4.114-1.672 1.613 0 2.977.557 4.092 1.672 1.129 1.1 1.694 2.464 1.694 4.092 0 1.628-.565 2.999-1.694 4.114zm-7.172-1.012c.836.836 1.862 1.254 3.08 1.254 1.217 0 2.244-.418 3.08-1.254.836-.851 1.254-1.885 1.254-3.102 0-1.217-.418-2.244-1.254-3.08-.836-.851-1.863-1.276-3.08-1.276-1.218 0-2.244.425-3.08 1.276-.836.836-1.254 1.863-1.254 3.08s.418 2.251 1.254 3.102zm18.291-3.256c1.203.44 1.804 1.298 1.804 2.574 0 .895-.3 1.635-.902 2.222-.586.572-1.437.858-2.552.858h-5.346v-11h4.906c1.071 0 1.9.279 2.486.836.587.543.88 1.247.88 2.112 0 1.1-.425 1.899-1.276 2.398zm-2.09-3.938h-3.454v3.344h3.454c1.276 0 1.914-.572 1.914-1.716 0-.513-.168-.909-.506-1.188-.322-.293-.792-.44-1.408-.44zm.44 8.184c.646 0 1.137-.154 1.474-.462.352-.308.528-.741.528-1.298 0-.513-.176-.917-.528-1.21-.337-.308-.828-.462-1.474-.462h-3.894v3.432h3.894zM186.95 35.22c4.807 0 8.797 1.447 11.97 4.34 3.22 2.847 4.83 6.86 4.83 12.04 0 5.133-1.727 9.147-5.18 12.04-3.453 2.893-7.677 4.34-12.67 4.34-4.06 0-7.63-.863-10.71-2.59-3.08-1.773-5.343-4.41-6.79-7.91l9.66-5.6c1.213 3.453 3.827 5.18 7.84 5.18 2.193 0 3.85-.513 4.97-1.54 1.12-1.027 1.68-2.333 1.68-3.92 0-1.587-.537-2.893-1.61-3.92-1.073-1.027-2.637-1.54-4.69-1.54h-15.33L172.95 18h28.35v10.5h-17.85l-.49 6.72h3.99zm54.875 25.83c-3.5 4.62-8.377 6.93-14.63 6.93-6.254 0-11.154-2.31-14.7-6.93-3.5-4.667-5.25-10.85-5.25-18.55 0-7.7 1.75-13.86 5.25-18.48 3.546-4.667 8.446-7 14.7-7 6.253 0 11.13 2.333 14.63 7 3.546 4.62 5.32 10.78 5.32 18.48 0 7.7-1.774 13.883-5.32 18.55zm-23.38-18.55c0 9.707 2.916 14.56 8.75 14.56 5.833 0 8.75-4.853 8.75-14.56s-2.917-14.56-8.75-14.56c-5.834 0-8.75 4.853-8.75 14.56zm67.471 18.55c-3.5 4.62-8.376 6.93-14.63 6.93-6.253 0-11.153-2.31-14.7-6.93-3.5-4.667-5.25-10.85-5.25-18.55 0-7.7 1.75-13.86 5.25-18.48 3.547-4.667 8.447-7 14.7-7 6.254 0 11.13 2.333 14.63 7 3.547 4.62 5.32 10.78 5.32 18.48 0 7.7-1.773 13.883-5.32 18.55zm-23.38-18.55c0 9.707 2.917 14.56 8.75 14.56 5.834 0 8.75-4.853 8.75-14.56s-2.916-14.56-8.75-14.56c-5.833 0-8.75 4.853-8.75 14.56z" fill="#fff"/></svg>