<svg width="321" height="58" viewBox="0 0 321 58" fill="none" xmlns="http://www.w3.org/2000/svg">
<rect y="20" width="34" height="13" fill="#DC8A74"/>
<path d="M11.86 54.104H12.84V56.876H11.916V55H6.204V56.876H5.28V54.104H6.134C6.61 53.4787 6.848 52.5967 6.848 51.458V48H11.86V54.104ZM7.254 54.104H10.936V48.896H7.772V51.458C7.772 52.5313 7.59933 53.4133 7.254 54.104ZM19.1938 48H20.1178V55H19.1938V51.948H15.1618V55H14.2378V48H15.1618V51.052H19.1938V48ZM27.1118 48V55H26.1878V52.312H24.9838L22.8278 55H21.6518L23.8638 52.284C23.3038 52.2 22.8418 51.9667 22.4778 51.584C22.1138 51.2013 21.9318 50.73 21.9318 50.17C21.9318 49.5353 22.1558 49.0173 22.6038 48.616C23.0611 48.2053 23.6165 48 24.2698 48H27.1118ZM24.2698 51.444H26.1878V48.896H24.2698C23.8778 48.896 23.5418 49.0127 23.2618 49.246C22.9911 49.4793 22.8558 49.7873 22.8558 50.17C22.8558 50.5527 22.9911 50.8607 23.2618 51.094C23.5418 51.3273 23.8778 51.444 24.2698 51.444Z" fill="white"/>
<path d="M19.13 16.52C20.47 16.98 21.55 17.73 22.37 18.77C23.19 19.79 23.6 21 23.6 22.4C23.6 24.6 22.86 26.32 21.38 27.56C19.9 28.8 18.09 29.42 15.95 29.42C14.29 29.42 12.8 29.04 11.48 28.28C10.18 27.52 9.22 26.4 8.6 24.92L12.74 22.52C13.26 24 14.33 24.74 15.95 24.74C16.89 24.74 17.6 24.52 18.08 24.08C18.56 23.64 18.8 23.08 18.8 22.4C18.8 21.72 18.56 21.16 18.08 20.72C17.6 20.28 16.89 20.06 15.95 20.06H14.96L13.13 17.33L16.94 12.5H9.26V8H22.76V11.9L19.13 16.52Z" fill="white"/>
<rect x="58" y="20" width="58" height="13" fill="#DC8A74"/>
<path d="M68.55 15.38C70.61 15.38 72.32 16 73.68 17.24C75.06 18.46 75.75 20.18 75.75 22.4C75.75 24.6 75.01 26.32 73.53 27.56C72.05 28.8 70.24 29.42 68.1 29.42C66.36 29.42 64.83 29.05 63.51 28.31C62.19 27.55 61.22 26.42 60.6 24.92L64.74 22.52C65.26 24 66.38 24.74 68.1 24.74C69.04 24.74 69.75 24.52 70.23 24.08C70.71 23.64 70.95 23.08 70.95 22.4C70.95 21.72 70.72 21.16 70.26 20.72C69.8 20.28 69.13 20.06 68.25 20.06H61.68L62.55 8H74.7V12.5H67.05L66.84 15.38H68.55ZM92.0677 26.45C90.5677 28.43 88.4777 29.42 85.7977 29.42C83.1177 29.42 81.0177 28.43 79.4977 26.45C77.9977 24.45 77.2477 21.8 77.2477 18.5C77.2477 15.2 77.9977 12.56 79.4977 10.58C81.0177 8.58 83.1177 7.58 85.7977 7.58C88.4777 7.58 90.5677 8.58 92.0677 10.58C93.5877 12.56 94.3477 15.2 94.3477 18.5C94.3477 21.8 93.5877 24.45 92.0677 26.45ZM82.0477 18.5C82.0477 22.66 83.2977 24.74 85.7977 24.74C88.2977 24.74 89.5477 22.66 89.5477 18.5C89.5477 14.34 88.2977 12.26 85.7977 12.26C83.2977 12.26 82.0477 14.34 82.0477 18.5ZM110.964 26.45C109.464 28.43 107.374 29.42 104.694 29.42C102.014 29.42 99.9141 28.43 98.3941 26.45C96.8941 24.45 96.1441 21.8 96.1441 18.5C96.1441 15.2 96.8941 12.56 98.3941 10.58C99.9141 8.58 102.014 7.58 104.694 7.58C107.374 7.58 109.464 8.58 110.964 10.58C112.484 12.56 113.244 15.2 113.244 18.5C113.244 21.8 112.484 24.45 110.964 26.45ZM100.944 18.5C100.944 22.66 102.194 24.74 104.694 24.74C107.194 24.74 108.444 22.66 108.444 18.5C108.444 14.34 107.194 12.26 104.694 12.26C102.194 12.26 100.944 14.34 100.944 18.5Z" fill="white"/>
<path d="M55.02 48H56L53.004 55.644C52.7333 56.3347 52.346 56.876 51.842 57.268C51.3473 57.6693 50.792 57.8467 50.176 57.8V56.932C51.016 57.0253 51.6553 56.54 52.094 55.476L52.276 55.042L49.14 48H50.12L52.752 53.866L55.02 48ZM61.6527 48H62.5767V55H61.6527V52.34C61.1114 52.62 60.4441 52.76 59.6507 52.76C58.7361 52.76 58.0361 52.55 57.5507 52.13C57.0747 51.7007 56.8367 51.0707 56.8367 50.24V48H57.7607V50.24C57.7607 50.828 57.9147 51.2527 58.2227 51.514C58.5307 51.766 58.9974 51.892 59.6227 51.892C60.3507 51.892 61.0274 51.7567 61.6527 51.486V48ZM70.5605 48H71.4845V55H70.5605V53.628C69.9165 54.6547 68.9739 55.168 67.7325 55.168C66.7339 55.168 65.8799 54.8133 65.1705 54.104C64.4705 53.3947 64.1205 52.5267 64.1205 51.5C64.1205 50.4733 64.4705 49.6053 65.1705 48.896C65.8799 48.1867 66.7339 47.832 67.7325 47.832C68.9739 47.832 69.9165 48.3453 70.5605 49.372V48ZM65.8425 53.474C66.3745 54.006 67.0279 54.272 67.8025 54.272C68.5772 54.272 69.2305 54.006 69.7625 53.474C70.2945 52.9327 70.5605 52.2747 70.5605 51.5C70.5605 50.7253 70.2945 50.072 69.7625 49.54C69.2305 48.9987 68.5772 48.728 67.8025 48.728C67.0279 48.728 66.3745 48.9987 65.8425 49.54C65.3105 50.072 65.0445 50.7253 65.0445 51.5C65.0445 52.2747 65.3105 52.9327 65.8425 53.474ZM76.7029 55.168C75.6483 55.168 74.7709 54.818 74.0709 54.118C73.3709 53.4087 73.0209 52.536 73.0209 51.5C73.0209 50.464 73.3709 49.596 74.0709 48.896C74.7709 48.1867 75.6483 47.832 76.7029 47.832C77.3936 47.832 78.0143 48 78.5649 48.336C79.1156 48.6627 79.5169 49.106 79.7689 49.666L79.0129 50.1C78.8263 49.68 78.5229 49.3487 78.1029 49.106C77.6923 48.854 77.2256 48.728 76.7029 48.728C75.9283 48.728 75.2749 48.9987 74.7429 49.54C74.2109 50.072 73.9449 50.7253 73.9449 51.5C73.9449 52.2747 74.2109 52.9327 74.7429 53.474C75.2749 54.006 75.9283 54.272 76.7029 54.272C77.2256 54.272 77.6923 54.1507 78.1029 53.908C78.5136 53.656 78.8356 53.32 79.0689 52.9L79.8389 53.348C79.5496 53.908 79.1249 54.3513 78.5649 54.678C78.0049 55.0047 77.3843 55.168 76.7029 55.168ZM86.0688 48V48.896H83.5908V55H82.6668V48.896H80.1888V48H86.0688ZM92.1508 48H93.0748V55H92.1508V51.948H88.1188V55H87.1948V48H88.1188V51.052H92.1508V48ZM100.125 48H100.909V55H99.9848V49.61L95.8128 55H95.0288V48H95.9528V53.39L100.125 48ZM108.519 55H107.287L103.787 51.626V55H102.863V48H103.787V51.094L107.119 48H108.379L104.767 51.36L108.519 55ZM114.95 54.118C114.24 54.818 113.372 55.168 112.346 55.168C111.319 55.168 110.446 54.818 109.728 54.118C109.018 53.4087 108.664 52.536 108.664 51.5C108.664 50.464 109.018 49.596 109.728 48.896C110.446 48.1867 111.319 47.832 112.346 47.832C113.372 47.832 114.24 48.1867 114.95 48.896C115.668 49.596 116.028 50.464 116.028 51.5C116.028 52.536 115.668 53.4087 114.95 54.118ZM110.386 53.474C110.918 54.006 111.571 54.272 112.346 54.272C113.12 54.272 113.774 54.006 114.306 53.474C114.838 52.9327 115.104 52.2747 115.104 51.5C115.104 50.7253 114.838 50.072 114.306 49.54C113.774 48.9987 113.12 48.728 112.346 48.728C111.571 48.728 110.918 48.9987 110.386 49.54C109.854 50.072 109.588 50.7253 109.588 51.5C109.588 52.2747 109.854 52.9327 110.386 53.474ZM122.026 51.402C122.791 51.682 123.174 52.228 123.174 53.04C123.174 53.6093 122.982 54.0807 122.6 54.454C122.226 54.818 121.685 55 120.976 55H117.574V48H120.696C121.377 48 121.904 48.1773 122.278 48.532C122.651 48.8773 122.838 49.3253 122.838 49.876C122.838 50.576 122.567 51.0847 122.026 51.402ZM120.696 48.896H118.498V51.024H120.696C121.508 51.024 121.914 50.66 121.914 49.932C121.914 49.6053 121.806 49.3533 121.592 49.176C121.386 48.9893 121.088 48.896 120.696 48.896ZM120.976 54.104C121.386 54.104 121.699 54.006 121.914 53.81C122.138 53.614 122.25 53.3387 122.25 52.984C122.25 52.6573 122.138 52.4007 121.914 52.214C121.699 52.018 121.386 51.92 120.976 51.92H118.498V54.104H120.976Z" fill="white"/>
<path d="M232.84 48V55H231.916V49.414L229.466 53.39H229.354L226.904 49.414V55H225.98V48H227.044L229.41 51.836L231.776 48H232.84ZM238.032 47.832C239.068 47.832 239.904 48.2007 240.538 48.938C241.182 49.666 241.504 50.5293 241.504 51.528C241.504 51.6307 241.495 51.7753 241.476 51.962H235.33C235.424 52.6713 235.722 53.236 236.226 53.656C236.74 54.0667 237.37 54.272 238.116 54.272C238.648 54.272 239.106 54.1647 239.488 53.95C239.88 53.726 240.174 53.4367 240.37 53.082L241.182 53.558C240.874 54.0527 240.454 54.4447 239.922 54.734C239.39 55.0233 238.784 55.168 238.102 55.168C237.001 55.168 236.105 54.8227 235.414 54.132C234.724 53.4413 234.378 52.564 234.378 51.5C234.378 50.4547 234.719 49.582 235.4 48.882C236.082 48.182 236.959 47.832 238.032 47.832ZM238.032 48.728C237.304 48.728 236.693 48.9473 236.198 49.386C235.713 49.8153 235.424 50.3753 235.33 51.066H240.552C240.459 50.3287 240.174 49.7547 239.698 49.344C239.222 48.9333 238.667 48.728 238.032 48.728ZM246.236 55.168C245.181 55.168 244.304 54.818 243.604 54.118C242.904 53.4087 242.554 52.536 242.554 51.5C242.554 50.464 242.904 49.596 243.604 48.896C244.304 48.1867 245.181 47.832 246.236 47.832C246.927 47.832 247.547 48 248.098 48.336C248.649 48.6627 249.05 49.106 249.302 49.666L248.546 50.1C248.359 49.68 248.056 49.3487 247.636 49.106C247.225 48.854 246.759 48.728 246.236 48.728C245.461 48.728 244.808 48.9987 244.276 49.54C243.744 50.072 243.478 50.7253 243.478 51.5C243.478 52.2747 243.744 52.9327 244.276 53.474C244.808 54.006 245.461 54.272 246.236 54.272C246.759 54.272 247.225 54.1507 247.636 53.908C248.047 53.656 248.369 53.32 248.602 52.9L249.372 53.348C249.083 53.908 248.658 54.3513 248.098 54.678C247.538 55.0047 246.917 55.168 246.236 55.168ZM255.602 48V48.896H253.124V55H252.2V48.896H249.722V48H255.602ZM266.094 54.118C265.385 54.818 264.517 55.168 263.49 55.168C262.463 55.168 261.591 54.818 260.872 54.118C260.163 53.4087 259.808 52.536 259.808 51.5C259.808 50.464 260.163 49.596 260.872 48.896C261.591 48.1867 262.463 47.832 263.49 47.832C264.517 47.832 265.385 48.1867 266.094 48.896C266.813 49.596 267.172 50.464 267.172 51.5C267.172 52.536 266.813 53.4087 266.094 54.118ZM261.53 53.474C262.062 54.006 262.715 54.272 263.49 54.272C264.265 54.272 264.918 54.006 265.45 53.474C265.982 52.9327 266.248 52.2747 266.248 51.5C266.248 50.7253 265.982 50.072 265.45 49.54C264.918 48.9987 264.265 48.728 263.49 48.728C262.715 48.728 262.062 48.9987 261.53 49.54C260.998 50.072 260.732 50.7253 260.732 51.5C260.732 52.2747 260.998 52.9327 261.53 53.474ZM271.98 55.168C270.926 55.168 270.048 54.818 269.348 54.118C268.648 53.4087 268.298 52.536 268.298 51.5C268.298 50.464 268.648 49.596 269.348 48.896C270.048 48.1867 270.926 47.832 271.98 47.832C272.671 47.832 273.292 48 273.842 48.336C274.393 48.6627 274.794 49.106 275.046 49.666L274.29 50.1C274.104 49.68 273.8 49.3487 273.38 49.106C272.97 48.854 272.503 48.728 271.98 48.728C271.206 48.728 270.552 48.9987 270.02 49.54C269.488 50.072 269.222 50.7253 269.222 51.5C269.222 52.2747 269.488 52.9327 270.02 53.474C270.552 54.006 271.206 54.272 271.98 54.272C272.503 54.272 272.97 54.1507 273.38 53.908C273.791 53.656 274.113 53.32 274.346 52.9L275.116 53.348C274.827 53.908 274.402 54.3513 273.842 54.678C273.282 55.0047 272.662 55.168 271.98 55.168ZM281.346 48V48.896H278.868V55H277.944V48.896H275.466V48H281.346ZM288.219 48H289.143V55H288.219V53.628C287.575 54.6547 286.632 55.168 285.391 55.168C284.392 55.168 283.538 54.8133 282.829 54.104C282.129 53.3947 281.779 52.5267 281.779 51.5C281.779 50.4733 282.129 49.6053 282.829 48.896C283.538 48.1867 284.392 47.832 285.391 47.832C286.632 47.832 287.575 48.3453 288.219 49.372V48ZM283.501 53.474C284.033 54.006 284.686 54.272 285.461 54.272C286.235 54.272 286.889 54.006 287.421 53.474C287.953 52.9327 288.219 52.2747 288.219 51.5C288.219 50.7253 287.953 50.072 287.421 49.54C286.889 48.9987 286.235 48.728 285.461 48.728C284.686 48.728 284.033 48.9987 283.501 49.54C282.969 50.072 282.703 50.7253 282.703 51.5C282.703 52.2747 282.969 52.9327 283.501 53.474ZM296.839 48V55H295.915V48.896H292.751V52.018C292.751 53.1847 292.527 53.9873 292.079 54.426C291.64 54.8647 291.034 55.056 290.259 55V54.132C290.791 54.188 291.183 54.062 291.435 53.754C291.696 53.446 291.827 52.8673 291.827 52.018V48H296.839ZM304.662 54.118C303.953 54.818 303.085 55.168 302.058 55.168C301.032 55.168 300.159 54.818 299.44 54.118C298.731 53.4087 298.376 52.536 298.376 51.5C298.376 50.464 298.731 49.596 299.44 48.896C300.159 48.1867 301.032 47.832 302.058 47.832C303.085 47.832 303.953 48.1867 304.662 48.896C305.381 49.596 305.74 50.464 305.74 51.5C305.74 52.536 305.381 53.4087 304.662 54.118ZM300.098 53.474C300.63 54.006 301.284 54.272 302.058 54.272C302.833 54.272 303.486 54.006 304.018 53.474C304.55 52.9327 304.816 52.2747 304.816 51.5C304.816 50.7253 304.55 50.072 304.018 49.54C303.486 48.9987 302.833 48.728 302.058 48.728C301.284 48.728 300.63 48.9987 300.098 49.54C299.566 50.072 299.3 50.7253 299.3 51.5C299.3 52.2747 299.566 52.9327 300.098 53.474ZM310.549 55.168C309.494 55.168 308.617 54.818 307.917 54.118C307.217 53.4087 306.867 52.536 306.867 51.5C306.867 50.464 307.217 49.596 307.917 48.896C308.617 48.1867 309.494 47.832 310.549 47.832C311.239 47.832 311.86 48 312.411 48.336C312.961 48.6627 313.363 49.106 313.615 49.666L312.859 50.1C312.672 49.68 312.369 49.3487 311.949 49.106C311.538 48.854 311.071 48.728 310.549 48.728C309.774 48.728 309.121 48.9987 308.589 49.54C308.057 50.072 307.791 50.7253 307.791 51.5C307.791 52.2747 308.057 52.9327 308.589 53.474C309.121 54.006 309.774 54.272 310.549 54.272C311.071 54.272 311.538 54.1507 311.949 53.908C312.359 53.656 312.681 53.32 312.915 52.9L313.685 53.348C313.395 53.908 312.971 54.3513 312.411 54.678C311.851 55.0047 311.23 55.168 310.549 55.168ZM317.853 50.66C318.507 50.66 319.057 50.8653 319.505 51.276C319.963 51.6773 320.191 52.1953 320.191 52.83C320.191 53.4647 319.963 53.9873 319.505 54.398C319.057 54.7993 318.507 55 317.853 55H315.011V48H315.935V50.66H317.853ZM317.853 54.104C318.245 54.104 318.577 53.9873 318.847 53.754C319.127 53.5207 319.267 53.2127 319.267 52.83C319.267 52.4473 319.127 52.1393 318.847 51.906C318.577 51.6727 318.245 51.556 317.853 51.556H315.935V54.104H317.853Z" fill="white"/>
<rect x="244" y="20" width="58" height="13" fill="#DC8A74"/>
<path d="M250.66 29V25.52L257.71 18.2C259.13 16.74 259.84 15.5 259.84 14.48C259.84 13.82 259.64 13.29 259.24 12.89C258.84 12.47 258.29 12.26 257.59 12.26C256.19 12.26 255.16 13.02 254.5 14.54L250.45 12.17C251.09 10.67 252.05 9.53 253.33 8.75C254.61 7.97 256.01 7.58 257.53 7.58C259.49 7.58 261.16 8.19 262.54 9.41C263.94 10.61 264.64 12.23 264.64 14.27C264.64 16.49 263.55 18.69 261.37 20.87L257.89 24.38H264.94V29H250.66ZM266.656 29V25.52L273.706 18.2C275.126 16.74 275.836 15.5 275.836 14.48C275.836 13.82 275.636 13.29 275.236 12.89C274.836 12.47 274.286 12.26 273.586 12.26C272.186 12.26 271.156 13.02 270.496 14.54L266.446 12.17C267.086 10.67 268.046 9.53 269.326 8.75C270.606 7.97 272.006 7.58 273.526 7.58C275.486 7.58 277.156 8.19 278.536 9.41C279.936 10.61 280.636 12.23 280.636 14.27C280.636 16.49 279.546 18.69 277.366 20.87L273.886 24.38H280.936V29H266.656ZM282.652 29V25.52L289.702 18.2C291.122 16.74 291.832 15.5 291.832 14.48C291.832 13.82 291.632 13.29 291.232 12.89C290.832 12.47 290.282 12.26 289.582 12.26C288.182 12.26 287.152 13.02 286.492 14.54L282.442 12.17C283.082 10.67 284.042 9.53 285.322 8.75C286.602 7.97 288.002 7.58 289.522 7.58C291.482 7.58 293.152 8.19 294.532 9.41C295.932 10.61 296.632 12.23 296.632 14.27C296.632 16.49 295.542 18.69 293.362 20.87L289.882 24.38H296.932V29H282.652Z" fill="white"/>
<path d="M144.02 48H145L142.004 55.644C141.733 56.3347 141.346 56.876 140.842 57.268C140.347 57.6693 139.792 57.8467 139.176 57.8V56.932C140.016 57.0253 140.655 56.54 141.094 55.476L141.276 55.042L138.14 48H139.12L141.752 53.866L144.02 48ZM154.156 55H153.036L150.18 51.626V55H149.256V51.626L146.4 55H145.28L148.416 51.36L145.42 48H146.54L149.256 51.108V48H150.18V51.108L152.896 48H154.016L151.02 51.36L154.156 55ZM158.087 47.832C159.123 47.832 159.958 48.2007 160.593 48.938C161.237 49.666 161.559 50.5293 161.559 51.528C161.559 51.6307 161.55 51.7753 161.531 51.962H155.385C155.478 52.6713 155.777 53.236 156.281 53.656C156.794 54.0667 157.424 54.272 158.171 54.272C158.703 54.272 159.16 54.1647 159.543 53.95C159.935 53.726 160.229 53.4367 160.425 53.082L161.237 53.558C160.929 54.0527 160.509 54.4447 159.977 54.734C159.445 55.0233 158.838 55.168 158.157 55.168C157.056 55.168 156.16 54.8227 155.469 54.132C154.778 53.4413 154.433 52.564 154.433 51.5C154.433 50.4547 154.774 49.582 155.455 48.882C156.136 48.182 157.014 47.832 158.087 47.832ZM158.087 48.728C157.359 48.728 156.748 48.9473 156.253 49.386C155.768 49.8153 155.478 50.3753 155.385 51.066H160.607C160.514 50.3287 160.229 49.7547 159.753 49.344C159.277 48.9333 158.722 48.728 158.087 48.728ZM169.791 55.168C168.736 55.168 167.859 54.818 167.159 54.118C166.459 53.4087 166.109 52.536 166.109 51.5C166.109 50.464 166.459 49.596 167.159 48.896C167.859 48.1867 168.736 47.832 169.791 47.832C170.481 47.832 171.102 48 171.653 48.336C172.203 48.6627 172.605 49.106 172.857 49.666L172.101 50.1C171.914 49.68 171.611 49.3487 171.191 49.106C170.78 48.854 170.313 48.728 169.791 48.728C169.016 48.728 168.363 48.9987 167.831 49.54C167.299 50.072 167.033 50.7253 167.033 51.5C167.033 52.2747 167.299 52.9327 167.831 53.474C168.363 54.006 169.016 54.272 169.791 54.272C170.313 54.272 170.78 54.1507 171.191 53.908C171.601 53.656 171.923 53.32 172.157 52.9L172.927 53.348C172.637 53.908 172.213 54.3513 171.653 54.678C171.093 55.0047 170.472 55.168 169.791 55.168ZM182.709 48H183.633V55H182.709V51.948H178.677V55H177.753V48H178.677V51.052H182.709V48ZM191.607 48H192.531V55H191.607V53.628C190.963 54.6547 190.021 55.168 188.779 55.168C187.781 55.168 186.927 54.8133 186.217 54.104C185.517 53.3947 185.167 52.5267 185.167 51.5C185.167 50.4733 185.517 49.6053 186.217 48.896C186.927 48.1867 187.781 47.832 188.779 47.832C190.021 47.832 190.963 48.3453 191.607 49.372V48ZM186.889 53.474C187.421 54.006 188.075 54.272 188.849 54.272C189.624 54.272 190.277 54.006 190.809 53.474C191.341 52.9327 191.607 52.2747 191.607 51.5C191.607 50.7253 191.341 50.072 190.809 49.54C190.277 48.9987 189.624 48.728 188.849 48.728C188.075 48.728 187.421 48.9987 186.889 49.54C186.357 50.072 186.091 50.7253 186.091 51.5C186.091 52.2747 186.357 52.9327 186.889 53.474ZM201.348 48V55H200.424V49.414L197.974 53.39H197.862L195.412 49.414V55H194.488V48H195.552L197.918 51.836L200.284 48H201.348ZM208.402 48H209.186V55H208.262V49.61L204.09 55H203.306V48H204.23V53.39L208.402 48Z" fill="white"/>
<rect x="143" y="20" width="62" height="13" fill="#DC8A74"/>
<path d="M151.66 29V25.52L158.71 18.2C160.13 16.74 160.84 15.5 160.84 14.48C160.84 13.82 160.64 13.29 160.24 12.89C159.84 12.47 159.29 12.26 158.59 12.26C157.19 12.26 156.16 13.02 155.5 14.54L151.45 12.17C152.09 10.67 153.05 9.53 154.33 8.75C155.61 7.97 157.01 7.58 158.53 7.58C160.49 7.58 162.16 8.19 163.54 9.41C164.94 10.61 165.64 12.23 165.64 14.27C165.64 16.49 164.55 18.69 162.37 20.87L158.89 24.38H165.94V29H151.66ZM166.71 8H180.51V12.02L173.67 29H168.57L175.17 12.62H166.71V8ZM194.121 18.05C195.941 19.23 196.851 20.91 196.851 23.09C196.851 25.03 196.171 26.57 194.811 27.71C193.471 28.85 191.581 29.42 189.141 29.42C186.701 29.42 184.801 28.85 183.441 27.71C182.101 26.57 181.431 25.03 181.431 23.09C181.431 20.91 182.341 19.23 184.161 18.05C182.821 17.01 182.151 15.6 182.151 13.82C182.151 11.86 182.811 10.33 184.131 9.23C185.451 8.13 187.121 7.58 189.141 7.58C191.161 7.58 192.831 8.13 194.151 9.23C195.471 10.33 196.131 11.86 196.131 13.82C196.131 15.6 195.461 17.01 194.121 18.05ZM190.731 12.65C190.331 12.27 189.801 12.08 189.141 12.08C188.481 12.08 187.951 12.27 187.551 12.65C187.151 13.03 186.951 13.52 186.951 14.12C186.951 14.72 187.151 15.21 187.551 15.59C187.951 15.97 188.481 16.16 189.141 16.16C189.801 16.16 190.331 15.97 190.731 15.59C191.131 15.21 191.331 14.72 191.331 14.12C191.331 13.52 191.131 13.03 190.731 12.65ZM187.041 24.26C187.581 24.7 188.281 24.92 189.141 24.92C190.001 24.92 190.701 24.7 191.241 24.26C191.781 23.8 192.051 23.18 192.051 22.4C192.051 21.62 191.781 21.01 191.241 20.57C190.701 20.11 190.001 19.88 189.141 19.88C188.281 19.88 187.581 20.11 187.041 20.57C186.501 21.01 186.231 21.62 186.231 22.4C186.231 23.18 186.501 23.8 187.041 24.26Z" fill="white"/>
</svg>
