<svg width="66" height="59" viewBox="0 0 66 59" fill="none" xmlns="http://www.w3.org/2000/svg">
<g opacity="0.6">
<path d="M58.6015 24.0563C59.1186 23.4295 59.6356 22.8395 60.0788 22.2126C60.8175 21.217 61.8146 20.8851 62.9964 21.1432C64.1044 21.4013 64.7692 22.2126 64.9908 23.3557C65.1385 24.167 64.88 24.8676 64.3998 25.4944C62.3686 28.0757 60.3373 30.6201 58.3061 33.2013C57.2351 34.5288 55.5731 34.8238 54.2067 33.7545C51.5106 31.6895 48.8146 29.5507 46.1555 27.412C45.0476 26.527 44.8629 24.757 45.7493 23.7245C46.6726 22.5813 48.2606 22.3601 49.4794 23.282C50.2919 23.9088 51.0675 24.5357 52.0277 25.0888C51.6953 23.9457 51.3998 22.8026 50.9936 21.6595C49.4425 17.4188 46.8203 13.9526 43.201 11.2238C40.2095 8.97445 36.8487 7.49945 33.1186 6.9832C25.843 5.9507 19.4169 7.8682 13.9879 12.8463C10.2209 16.2388 7.89415 20.4795 7.00779 25.4207C5.8629 32.0951 7.34017 38.2163 11.5504 43.6001C14.7635 47.6932 18.9368 50.4957 23.9964 51.6388C32.897 53.667 40.468 51.2332 46.6726 44.5957C47.3373 43.8582 47.8913 43.0469 48.5192 42.2726C49.3686 41.1663 50.5504 40.687 51.9169 40.9451C53.1726 41.2032 54.022 41.9776 54.3913 43.1945C54.7237 44.2638 54.4652 45.2595 53.8373 46.1813C50.5504 51.012 46.1925 54.5151 40.8004 56.7645C36.664 58.4976 32.3061 59.1982 27.8373 58.9401C21.4112 58.5713 15.7237 56.3588 10.7748 52.2657C5.34586 47.8038 1.83733 42.1251 0.58165 35.2295C-1.30187 25.052 1.39415 16.1282 8.59586 8.71633C12.9538 4.21758 18.272 1.48883 24.4765 0.456328C31.5675 -0.760547 38.2521 0.456328 44.4567 4.10695C51.0305 7.97883 55.4623 13.6207 57.7521 20.922C58.0845 21.8807 58.3061 22.9501 58.6015 24.0563Z" fill="#C77059"/>
<path d="M34.0048 23.2077C34.0048 26.2314 33.9679 29.2552 34.0048 32.2789C34.0417 33.9014 33.0446 35.5977 30.7917 35.4871C30.09 35.4502 29.3514 35.4871 28.6497 35.4502C26.877 35.3764 25.769 34.1964 25.7321 32.4264C25.7321 29.2921 25.7321 26.1577 25.7321 23.0602C25.7321 20.0364 25.7321 17.0127 25.7321 13.9889C25.7321 12.2558 27.0616 10.8546 28.7236 10.9652C29.3883 11.0021 30.09 11.0389 30.7548 10.9652C32.9338 10.7808 34.0417 12.5139 34.0048 14.2102C33.9679 17.1971 34.0048 20.1839 34.0048 23.2077Z" fill="#C77059"/>
<path d="M29.8685 47.1397C27.7633 47.1765 25.7321 45.5172 25.6952 42.9728C25.6582 40.7234 27.6156 38.8059 29.8315 38.8059C32.3798 38.8059 34.0787 40.834 34.0417 43.0465C34.0048 45.2959 32.1213 47.1397 29.8685 47.1397Z" fill="#C77059"/>
</g>
</svg>
